<?xml version="1.0" encoding="iso-8859-1"?>
<!-- Generator: Adobe Illustrator 19.0.0, SVG Export Plug-In . SVG Version: 6.00 Build 0)  -->
<svg version="1.1" id="Capa_1" xmlns="http://www.w3.org/2000/svg" xmlns:xlink="http://www.w3.org/1999/xlink" x="0px" y="0px"
	 viewBox="0 0 512 512" style="enable-background:new 0 0 512 512;" xml:space="preserve">
<g>
	<g>
		<path d="M397.458,52.27h-32.064l-10.789-34.738c-0.974-3.139-3.878-5.277-7.165-5.277h-50.018c-3.286,0-6.19,2.139-7.165,5.277
			L279.468,52.27h-32.066c-4.145,0-7.503,3.358-7.503,7.503s3.358,7.503,7.503,7.503h25.504c-1.973,5.58-2.996,11.484-2.996,17.506
			c0,28.959,23.561,52.519,52.519,52.519s52.519-23.561,52.519-52.519c0-6.023-1.023-11.927-2.994-17.506h25.502
			c4.145,0,7.503-3.358,7.503-7.503S401.602,52.27,397.458,52.27z M302.947,27.261h38.965l7.769,25.009H295.18L302.947,27.261z
			 M322.43,122.296c-20.686,0-37.514-16.828-37.514-37.514c0-6.158,1.511-12.133,4.354-17.506h66.323
			c2.842,5.371,4.352,11.346,4.352,17.506C359.944,105.467,343.115,122.296,322.43,122.296z"/>
	</g>
</g>
<g>
	<g>
		<path d="M117.454,32.574c-24.659,0-45.392,17.087-51.009,40.04C48.975,73.14,34.924,87.505,34.924,105.1
			c0,17.927,14.584,32.512,32.512,32.512c8.106,0,15.809-3.022,21.71-8.317c8.176,5.255,17.889,8.317,28.308,8.317
			c28.959,0,52.519-23.561,52.519-52.519S146.413,32.574,117.454,32.574z M117.454,47.578c17.968,0.001,33.017,12.7,36.665,29.591
			c-20.16-2.001-38.593-11.216-52.316-26.157C106.57,48.813,111.869,47.578,117.454,47.578z M67.436,122.607
			c-9.653,0-17.506-7.854-17.506-17.506c0-8.826,6.571-16.127,15.074-17.317c0.609,12.009,5.282,22.958,12.654,31.522
			C74.717,121.42,71.155,122.607,67.436,122.607z M117.455,122.606c-20.686,0-37.514-16.828-37.514-37.514
			c-0.001-9.667,3.675-18.49,9.703-25.148c16.698,18.811,39.591,30.255,64.631,32.311
			C150.922,109.525,135.691,122.606,117.455,122.606z"/>
	</g>
</g>
<g>
	<g>
		<path d="M162.471,347.69c4.145,0,7.503-3.358,7.503-7.503V230.565c5.79,1.109,11.619,1.662,17.415,1.662
			c24.147,0,47.698-9.475,65.318-27.096c2.93-2.931,2.93-7.681,0-10.611c-2.931-2.929-7.681-2.929-10.611,0
			c-18.989,18.99-46.195,26.683-72.123,20.718v-35.108c0-15.169-12.342-27.51-27.51-27.51H92.445
			c-15.169,0-27.51,12.342-27.51,27.51v6.68c-37.576,11.737-64.924,46.861-64.924,88.254c0,4.145,3.358,7.503,7.503,7.503
			s7.503-3.358,7.503-7.503c0-33.007,20.769-61.241,49.918-72.361v44.709c-9.697,11.993-15.005,26.945-15.005,42.422v50.354
			c0,4.145,3.358,7.503,7.503,7.503H79.94v44.877L5.13,417.503C2.066,418.523,0,421.39,0,424.62v31.766c0,0.027,0,15.687,0,15.687
			c0,4.145,3.358,7.503,7.503,7.503s7.503-3.358,7.503-7.503v-10.41l51.812-17.27c1.888-0.629,3.447-1.983,4.338-3.762
			c0.89-1.78,1.036-3.84,0.407-5.729l-7.118-21.353l25.372-8.457c3.064-1.021,5.13-3.888,5.13-7.118v-50.285h45.017v144.553
			c0,4.145,3.358,7.503,7.503,7.503h45.017c4.145,0,7.503-3.358,7.503-7.503s-3.359-7.502-7.504-7.502h-7.503v-52.519
			c0-4.145-3.358-7.503-7.503-7.503h-22.508V347.69H162.471z M15.006,445.845v-15.818l35.203-11.733l4.746,14.235L15.006,445.845z
			 M79.94,180.128c0-6.896,5.609-12.505,12.505-12.505h32.512v52.519c0,4.145,3.358,7.503,7.503,7.503s7.503-3.358,7.503-7.503
			v-52.519h2.501c6.896,0,12.505,5.609,12.505,12.505v62.523H79.941v-43.992c4.073-0.664,8.247-1.024,12.505-1.024
			c4.145,0,7.503-3.358,7.503-7.503c0-4.145-3.358-7.503-7.503-7.503c-4.241,0-8.414,0.293-12.505,0.849V180.128z M169.974,439.724
			v45.017h-15.006v-45.017H169.974z M64.935,332.684v-42.851c0-11.691,3.906-22.99,11.043-32.177h78.99v75.028H64.935z"/>
	</g>
</g>
<g>
	<g>
		<path d="M507.124,137.776l-53.52-20.007c-0.056-0.021-0.114-0.036-0.171-0.055c-0.122-0.042-0.245-0.083-0.37-0.12
			c-0.107-0.031-0.214-0.057-0.322-0.083c-0.118-0.029-0.235-0.058-0.355-0.081c-0.132-0.025-0.265-0.043-0.398-0.061
			c-0.099-0.013-0.196-0.03-0.296-0.04c-0.475-0.045-0.953-0.045-1.429,0c-0.1,0.009-0.197,0.026-0.296,0.04
			c-0.133,0.018-0.266,0.036-0.398,0.061c-0.12,0.023-0.237,0.052-0.355,0.081c-0.108,0.026-0.215,0.052-0.322,0.083
			c-0.125,0.036-0.248,0.077-0.37,0.12c-0.057,0.02-0.115,0.034-0.171,0.055l-53.52,20.007c-2.933,1.096-4.876,3.897-4.876,7.028
			v27.51h-16.054c-3.275-11.532-13.894-20.007-26.462-20.007h-50.018c-15.169,0-27.51,12.342-27.51,27.51v100.037
			c0,14.274,5.732,27.229,15.005,36.706v75.697l-27.352,9.117c-0.01,0.003-47.458,15.819-47.458,15.819
			c-3.064,1.021-5.13,3.888-5.13,7.118v31.766c0,0.027,0,15.687,0,15.687c0,4.145,3.358,7.503,7.503,7.503s7.503-3.358,7.503-7.503
			v-10.41l51.812-17.27c3.93-1.31,6.055-5.56,4.745-9.49l-7.118-21.354l25.371-8.457c3.064-1.021,5.13-3.888,5.13-7.118v-70.369
			c6.826,3.252,14.457,5.078,22.508,5.078s15.682-1.826,22.508-5.078v164.637c0,4.145,3.358,7.503,7.503,7.503h45.017
			c4.145,0,7.503-3.358,7.503-7.503c0-4.145-3.358-7.503-7.503-7.503h-7.503V431.91c0-4.145-3.358-7.503-7.503-7.503h-22.508
			V316.559c9.273-9.476,15.005-22.431,15.005-36.706v-26.297c4.957,0.969,9.973,1.556,15.006,1.777v44.527
			c0,2.46,1.205,4.763,3.226,6.164c2.022,1.401,4.6,1.726,6.904,0.863l50.893-19.026l50.893,19.026
			c0.852,0.318,1.741,0.475,2.626,0.475c1.509,0,3.004-0.455,4.278-1.339c2.021-1.401,3.226-3.704,3.226-6.164V144.804
			C512,141.674,510.056,138.872,507.124,137.776z M219.98,445.536v-15.818l35.204-11.734l4.746,14.236L219.98,445.536z
			 M322.43,317.368c-18.117,0-33.274-12.909-36.76-30.011h73.518C355.703,304.459,340.547,317.368,322.43,317.368z M374.949,439.413
			v45.017h-15.005v-45.017H374.949z M359.944,233.361c-19.977-8.653-36.644-24.817-45.588-46.412
			c-1.586-3.828-5.974-5.647-9.803-4.06c-3.828,1.586-5.647,5.974-4.06,9.803c9.668,23.34,27.556,42.141,50.372,52.942
			c2.978,1.41,6.009,2.659,9.079,3.766v22.952h-75.028v-92.534c0-6.896,5.609-12.505,12.505-12.505h50.018
			c6.896,0,12.505,5.609,12.505,12.505V233.361z M443.476,274.648l-38.514,14.398V254.88h-0.001
			c6.104-0.642,12.175-1.839,18.138-3.604c3.973-1.176,6.24-5.351,5.065-9.323c-1.177-3.974-5.354-6.236-9.323-5.065
			c-7.037,2.083-14.135,3.215-21.164,3.5c-0.073-0.002-0.144-0.011-0.217-0.011c-0.267,0-0.53,0.015-0.789,0.042
			c-7.38,0.213-14.672-0.511-21.719-2.128V187.32h15.006v30.549c0,4.145,3.358,7.503,7.503,7.503c4.145,0,7.503-3.358,7.503-7.503
			v-67.86l38.514-14.398V274.648z M496.995,289.046l-38.514-14.398V135.612l38.514,14.398V289.046z"/>
	</g>
</g>
<g>
</g>
<g>
</g>
<g>
</g>
<g>
</g>
<g>
</g>
<g>
</g>
<g>
</g>
<g>
</g>
<g>
</g>
<g>
</g>
<g>
</g>
<g>
</g>
<g>
</g>
<g>
</g>
<g>
</g>
</svg>
