<?xml version="1.0" standalone="no"?>
<!DOCTYPE svg PUBLIC "-//W3C//DTD SVG 20010904//EN"
 "http://www.w3.org/TR/2001/REC-SVG-20010904/DTD/svg10.dtd">
<svg version="1.0" xmlns="http://www.w3.org/2000/svg"
 width="100" height="100"
 preserveAspectRatio="xMidYMid meet">
<metadata>
Created by potrace 1.10, written by Peter Selinger 2001-2011
</metadata>
<g transform="translate(0.000000,75.000000) scale(0.100000,-0.100000)"
fill="#4c547c" stroke="none">
<path d="M318 703 c-15 -9 -32 -26 -38 -37 -12 -22 -115 -73 -140 -69 -80 13
-134 -82 -77 -135 13 -12 28 -22 35 -22 17 0 34 -38 27 -60 -4 -11 -12 -20
-19 -20 -7 0 -24 -13 -39 -28 -54 -56 -21 -132 56 -132 46 0 128 -40 173 -84
45 -44 91 -43 131 1 42 47 116 83 165 81 83 -3 115 87 51 139 -63 51 -64 52
-53 73 6 11 23 26 39 34 83 43 46 158 -49 154 -45 -1 -117 35 -155 78 -37 41
-71 50 -107 27z m74 -30 c10 -9 18 -22 18 -29 0 -18 157 -97 165 -84 16 26 75
-6 75 -42 0 -23 -35 -59 -52 -53 -11 4 -58 -53 -58 -70 0 -15 45 -65 59 -65
23 0 51 -31 51 -56 0 -32 -42 -59 -69 -45 -16 9 -34 4 -96 -26 -48 -24 -75
-43 -75 -54 0 -44 -77 -53 -95 -10 -6 14 -38 37 -87 62 -66 33 -81 37 -98 27
-16 -10 -23 -9 -45 12 -18 16 -23 30 -19 44 7 26 34 48 50 42 7 -3 24 12 37
33 l26 38 -26 37 c-15 20 -34 36 -44 36 -28 0 -53 44 -40 69 14 25 45 35 68
23 25 -14 173 62 173 88 0 36 51 51 82 23z"/>
<path d="M347 654 c-14 -14 -7 -35 11 -32 9 2 17 10 17 17 0 16 -18 25 -28 15z"/>
<path d="M238 560 c-37 -20 -70 -39 -74 -42 -3 -4 11 -14 31 -23 19 -10 37
-16 38 -14 49 68 78 112 75 114 -2 1 -33 -14 -70 -35z"/>
<path d="M436 549 c21 -30 41 -58 45 -62 7 -9 69 19 69 31 0 6 -85 54 -143 80
-5 2 8 -20 29 -49z"/>
<path d="M302 525 l-41 -64 30 -15 c23 -12 35 -13 48 -4 13 8 23 8 37 0 13 -7
26 -6 47 4 15 9 27 18 25 22 -18 41 -76 121 -89 122 -8 0 -34 -29 -57 -65z
m83 -15 c12 -23 13 -30 3 -31 -7 0 -25 -2 -40 -3 -32 -2 -35 10 -12 42 20 29
30 28 49 -8z"/>
<path d="M107 533 c-4 -3 -7 -12 -7 -20 0 -15 26 -18 34 -4 7 11 -18 33 -27
24z"/>
<path d="M587 534 c-14 -14 -7 -35 11 -32 9 2 17 10 17 17 0 16 -18 25 -28 15z"/>
<path d="M172 459 c18 -28 38 -36 38 -16 0 7 -12 19 -27 26 -26 12 -26 12 -11
-10z"/>
<path d="M522 466 c-22 -11 -25 -27 -6 -33 8 -3 39 36 32 41 -2 1 -13 -3 -26
-8z"/>
<path d="M228 415 c-9 -21 -9 -29 4 -41 14 -14 19 -14 47 0 17 9 31 20 31 24
0 4 -16 15 -35 24 -35 18 -36 18 -47 -7z"/>
<path d="M433 418 c-30 -15 -29 -24 7 -43 37 -19 37 -19 50 6 9 15 8 24 -1 35
-13 16 -25 17 -56 2z"/>
<path d="M343 404 c-7 -19 2 -28 22 -21 19 8 19 23 0 31 -9 3 -18 -1 -22 -10z"/>
<path d="M177 344 c-20 -27 -11 -32 19 -10 12 10 16 18 9 25 -7 6 -16 1 -28
-15z"/>
<path d="M507 356 c-4 -10 1 -20 14 -27 28 -15 31 -8 10 20 -15 20 -19 21 -24
7z"/>
<path d="M288 344 l-28 -15 43 -64 c23 -36 47 -65 54 -65 10 0 93 114 93 129
0 3 -14 12 -30 20 -24 10 -34 10 -45 1 -10 -8 -19 -8 -34 -1 -24 13 -20 14
-53 -5z m112 -29 c0 -2 -5 -16 -12 -30 -13 -30 -43 -33 -58 -6 -17 33 -11 41
30 41 22 0 40 -2 40 -5z"/>
<path d="M197 301 c-15 -10 -30 -20 -33 -24 -5 -5 126 -77 141 -77 3 0 -13 27
-35 60 -22 33 -42 60 -43 59 -1 0 -14 -8 -30 -18z"/>
<path d="M447 262 c-21 -30 -36 -56 -34 -58 5 -6 137 66 137 75 0 4 -15 14
-32 23 l-33 15 -38 -55z"/>
<path d="M107 293 c-4 -3 -7 -12 -7 -20 0 -15 26 -18 34 -4 7 11 -18 33 -27
24z"/>
<path d="M587 294 c-14 -14 -7 -35 11 -32 9 2 17 10 17 17 0 16 -18 25 -28 15z"/>
<path d="M347 173 c-4 -3 -7 -12 -7 -20 0 -15 26 -18 34 -4 7 11 -18 33 -27
24z"/>
</g>
</svg>
